<svg version="1" xmlns="http://www.w3.org/2000/svg" width="933.333" height="933.333" viewBox="0 0 700.000000 700.000000"><path d="M205.7 58.6c-.1.1-4.9.4-10.7.7-5.8.3-11.8.8-13.5 1.1-1.6.3-5.5.8-8.5 1.1-9.8.9-16.8 2-32 4.9-14.6 2.8-43 11.8-56 17.9-3.6 1.6-7 3.1-7.6 3.2-1.7.4-19.6 11.3-23.4 14.3-7.2 5.7-14.4 12.9-18.5 18.7-4.1 5.6-12.2 21.3-14 26.6-.4 1.3-.8 2.6-.9 2.9-4.5 12.8-6.9 21.9-10.2 38-1.6 7.9-1.8 8.6-2.9 16.5-.4 2.7-.9 5.9-1.1 7-.2 1.1-.7 4.7-.9 8-.3 3.3-.7 6.9-1 8-.2 1.1-.7 5.4-1.1 9.5-.3 4.1-.7 9.1-.9 11-2.7 27.9-2.7 108.7 0 149.5.8 13 1.6 23.2 2 26.5.2 1.9.7 7.1 1 11.5 1.2 15.3 1.7 20.8 3 31.5.3 1.9.7 6 1 9 .8 7.8 2.4 21 3 24 .2 1.4.6 4.3.9 6.5.2 2.2.9 6.9 1.5 10.5.6 3.6 1.3 8.3 1.6 10.5.3 2.2.8 5.1 1 6.5.3 1.4.7 4.1 1 6 3.7 23.2 10.4 50.4 15 60.4 14 30.6 54.5 56.1 88.5 55.7 7.3 0 9.2-.3 16.3-2.7 6.1-2 14.9-10.4 17.8-16.8 2.8-6.5 1.4-10.2-8.6-23.1-21.4-27.6-28.3-43.9-31.1-73.5-.5-5.5-.5-34.9 0-40.5.3-2.8.8-8.4 1.1-12.5.3-4.1.8-8.9 1-10.5.2-1.7.7-5.3 1-8 .9-7.5 3.1-21.2 4.1-25.5.3-1.4.8-3.9 1.1-5.5.7-4.8 4.5-19.9 5.3-21.4.4-.8 1 .6 1.4 3.5.4 2.7.9 5.7 1.1 6.6.2.9.6 3.4.9 5.5.3 2.1.8 5.4 1.2 7.3 1 6 6.4 30 9.5 42.5 1.7 6.6 3.2 12.7 3.4 13.5.2.8 3 12.3 6.3 25.5 5.9 23.4 11.2 46.4 12.8 55.5.4 2.5.8 4.7.9 5 .1.5 1.6 10 2.1 14 .2 1.4.6 7 .9 12.5 1.4 26.6 2.1 31.6 5.8 42.4 4.7 13.4 11.8 22.7 23 30 8.1 5.2 19.7 9.4 29.5 10.7 2 .2 4.8.7 6.2 1 7.6 1.8 50.3 1.1 61.4-1 27.7-5.2 45.6-19.8 52.4-43.1 3.5-11.9 4.3-18.4 4.4-34.8l.1-12.8 13.6.8c7.5.4 24.1.7 36.9.7l23.2-.1.1 11.1c.1 17 1.5 26.6 5.4 37.9 10.7 30.4 35.5 42.7 86.1 42.5 31.7-.1 49.4-4 64.3-14 4.6-3.1 13.1-11.5 13.1-12.9 0-.4.6-1.4 1.4-2.1 3.8-3.9 9-18.4 10.7-30.3.5-3.8 1.2-12 1.4-18 .2-6.1.6-13 1-15.5 1.6-12.8 6.6-32.4 13.5-52.5 2.8-8.3 5.2-15.7 5.5-16.5.4-1.8 17.9-48.7 23-62 2-5.2 4-9.9 4.5-10.3.7-.8 1.2 4.5 2.6 26.8.2 2.7.6 16.5.9 30.5.6 22.6.9 26 2.7 29.8 5.1 10.8 18.9 14.2 28.8 7.1 7.7-5.6 8.1-7.5 7.5-37.9-.3-14.6-.7-29-1-32-.2-3-.6-10-1-15.5-.3-5.5-.8-11.6-1-13.5-.2-1.9-.7-6.4-1-10-.3-3.6-.8-8.1-1-10-.3-1.9-.9-7.3-1.5-12-1.1-9.2-1.5-12.1-2.4-19-.4-2.5-.9-6.1-1.2-8-.2-2-.7-4.7-.9-6-.3-1.4-.8-4.1-1.1-6-.2-1.9-1-5.9-1.5-8.9-.6-3-1.2-6.4-1.4-7.5-.7-5.5-6.1-30-10.2-46.6-2.5-10.2-4.7-19.9-4.9-21.5-3.1-26.3-11.9-57.2-22.6-79.5-13.7-28.4-30.7-49.1-57.8-70.3-14.8-11.6-44.1-25.9-68-33.1-21.1-6.3-46.9-11.4-66.5-13.1-4.4-.4-9.1-.9-10.5-1.1-9.8-1.2-41.7-1.9-59.5-1.4-7 .2-7.1.2-15.5-5.2-30.6-19.8-66.2-30.6-117.5-35.4-6.4-.6-45.3-1.3-45.8-.8zm-69.4 189c6.4 2.2 13.1 8.4 16.3 15.2 6.8 14.2.4 31.7-14.1 38.6-5.4 2.6-14.3 3.1-20.8 1.2-7.6-2.2-15-9-18.1-16.9-5.8-14.6.4-30.1 15-37.2 5.9-2.9 14.7-3.3 21.7-.9z"/></svg>