<svg viewBox="0 0 174 186" xmlns="http://www.w3.org/2000/svg" fill-rule="evenodd" clip-rule="evenodd" stroke-linejoin="round" stroke-miterlimit="2">
	<path d="M169.446 111.27c-2.545 13.093-22.794 27.422-46.05 30.199-12.127 1.447-24.067 2.777-36.799 2.193-20.822-.954-37.252-4.97-37.252-4.97 0 2.027.125 3.957.375 5.762 2.707 20.549 20.376 21.78 37.113 22.354 16.893.578 31.935-4.165 31.935-4.165l.694 15.272s-11.816 6.345-32.865 7.512c-11.607.638-26.019-.292-42.805-4.735C7.386 171.056 1.125 132.249.167 92.873-.125 81.182.055 70.158.055 60.938c0-40.264 26.381-52.066 26.381-52.066C39.738 2.763 62.563.194 86.292 0h.583c23.729.194 46.569 2.763 59.87 8.872 0 0 26.38 11.802 26.38 52.066 0 0 .331 29.707-3.679 50.332" fill="#3088d4" fill-rule="nonzero"/>
	<g fill="#fff">
		<path d="M170.804 102.751c-1.682.442-3.452.639-5.298.639-5.619 0-9.961-1.469-13.025-4.406-3.065-2.938-4.598-7.216-4.598-12.835V61.534h-8.428v-9.578h8.428V40.271h11.973v11.685h12.748c.357 2.821.521 5.813.521 8.982l-.001.596h-13.268v24.328c0 2.49.606 4.39 1.819 5.699 1.214 1.309 2.969 1.963 5.268 1.963 1.869 0 3.52-.341 4.944-1.046l-.175 2.226-.908 8.047z"/>
		<path d="M115.127 103.39c-5.172 0-9.834-1.118-13.984-3.353-4.151-2.235-7.391-5.347-9.722-9.338-2.33-3.991-3.496-8.509-3.496-13.553 0-5.044 1.166-9.546 3.496-13.505 2.331-3.959 5.571-7.056 9.722-9.29 4.15-2.235 8.812-3.353 13.984-3.353 5.236 0 9.929 1.118 14.079 3.353 4.151 2.234 7.391 5.331 9.722 9.29 2.33 3.959 3.496 8.461 3.496 13.505 0 5.044-1.166 9.562-3.496 13.553-2.331 3.991-5.571 7.103-9.722 9.338-4.15 2.235-8.843 3.353-14.079 3.353zm0-10.249c4.405 0 8.045-1.468 10.918-4.406 2.874-2.937 4.311-6.8 4.311-11.589 0-4.789-1.437-8.652-4.311-11.589-2.873-2.937-6.513-4.406-10.918-4.406-4.406 0-8.03 1.469-10.871 4.406-2.842 2.937-4.262 6.8-4.262 11.589 0 4.789 1.42 8.652 4.262 11.589 2.841 2.938 6.465 4.406 10.871 4.406z" fill-rule="nonzero"/>
		<path d="M61.011 103.39c-5.172 0-9.833-1.118-13.983-3.353-4.151-2.235-7.391-5.347-9.722-9.338-2.331-3.991-3.496-8.509-3.496-13.553 0-5.044 1.165-9.546 3.496-13.505 2.331-3.959 5.571-7.056 9.722-9.29 4.15-2.235 8.811-3.353 13.983-3.353 5.236 0 9.929 1.118 14.08 3.353 4.15 2.234 7.391 5.331 9.722 9.29 2.33 3.959 3.495 8.461 3.495 13.505 0 5.044-1.165 9.562-3.495 13.553-2.331 3.991-5.572 7.103-9.722 9.338-4.151 2.235-8.844 3.353-14.08 3.353zm0-10.249c4.406 0 8.046-1.468 10.919-4.406 2.874-2.937 4.31-6.8 4.31-11.589 0-4.789-1.436-8.652-4.31-11.589-2.873-2.937-6.513-4.406-10.919-4.406-4.405 0-8.029 1.469-10.871 4.406-2.841 2.937-4.262 6.8-4.262 11.589 0 4.789 1.421 8.652 4.262 11.589 2.842 2.938 6.466 4.406 10.871 4.406z" fill-rule="nonzero"/>
		<path d="M.575 51.956h7.854V40.271h11.972v11.685h13.696v9.578H20.401v24.328c0 2.49.607 4.39 1.82 5.699 1.213 1.309 2.969 1.963 5.268 1.963 2.681 0 4.916-.702 6.704-2.107l3.352 8.524c-1.404 1.15-3.112 2.012-5.124 2.587-2.011.574-4.134.862-6.369.862-5.619 0-9.961-1.469-13.026-4.406-3.065-2.938-4.597-7.216-4.597-12.835V61.534H.053l.002-.596c0-3.169.163-6.161.52-8.982z"/>
	</g>
</svg>
