<svg viewBox="0 0 36 36" xmlns="http://www.w3.org/2000/svg" fill-rule="evenodd" clip-rule="evenodd" stroke-linejoin="round" stroke-miterlimit="2"><path d="M34.453 15.573C35.229 18.393 36 22.488 36 27.641a1 1 0 11-2 0c0-1.5-.075-2.899-.193-4.206a12.18 12.18 0 01-.42 1.117c-.847 2.357-2.039 5.181-2.039 6.982 0 3.564-2.102 4.107-4.695 4.107-2.591 0-4.694-.543-4.694-4.107 0-.217.009-.418.013-.627a29.52 29.52 0 01-1.448.039c-.824 0-1.602-.043-2.359-.107.004.232.012.455.012.695 0 3.564-2.102 4.107-4.695 4.107-2.592 0-4.694-.543-4.694-4.107 0-2.332-1.603-6.873-1.993-9.744-.032-.164-.072-.318-.1-.486-.721 2.612-1.105 6.77-.255 8.471 1.173 2.345 2.347 2.345 1.173 3.521-1.174 1.171-4.695 0-5.868-2.35C.571 28.6-1.51 11.183 1.745 6.3c2.346-3.521 12.91-4.695 17.604-1.174.013.01.022.021.035.031.376-.014.748-.031 1.139-.031 8.201 0 13.066 3.147 13.93 10.447zM6.5 12.641a1.5 1.5 0 11-.001 3.001 1.5 1.5 0 01.001-3.001z" fill="#3088d4"/></svg>