<svg viewBox="0 0 64 64" width="512" height="512" xmlns="http://www.w3.org/2000/svg"
	xmlns:xlink="http://www.w3.org/1999/xlink" version="1.1">
	<defs>
		<filter id="blur">
			<feGaussianBlur stdDeviation="15"></feGaussianBlur>
		</filter>
		<clipPath id="pentagon">
			<path d="m38.802 1.632 23.656 29.212-20.473 31.524-36.307-9.729-1.968-37.537z"></path>
		</clipPath>
	</defs>
	<g clip-path="url(#pentagon)">
		<g filter="url(#blur)">
			<circle cx="0" cy="10" fill="#F44336" r="39"></circle>
			<circle cx="45" cy="-5" fill="#FFEB3B" r="39"></circle>
			<circle cx="70" cy="25" fill="#4CAF50" r="39"></circle>
			<circle cx="50" cy="65" fill="#03A9F4" r="39"></circle>
			<circle cx="5" cy="70" fill="#673AB7" r="39"></circle>
			<circle cx="50" cy="31.5" fill="#4CAF50" r="12"></circle>
			<circle cx="37.5" cy="50.5" fill="#03A9F4" r="12"></circle>
			<circle cx="15.5" cy="44.5" fill="#673AB7" r="12"></circle>
			<circle cx="14" cy="22" fill="#F44336" r="12"></circle>
			<circle cx="36" cy="14" fill="#FFEB3B" r="12"></circle>
		</g>
	</g>
	<path
		d="m17.498 27.02h6.489c-.034-4.909-3.81-8.136-9.853-8.136-5.94 0-10.128 3.193-10.093 7.93 0 3.914 2.677 6.077 7.106 7.038l2.506.515c2.781.618 3.708 1.305 3.742 2.472-.034 1.202-1.133 2.094-3.33 2.094-2.575 0-4.12-1.236-4.223-3.536h-6.454c.035 6.283 4.292 9.098 10.78 9.098 6.351 0 10.128-2.747 10.162-7.656-.034-3.81-2.3-6.488-7.793-7.656l-2.06-.446c-2.369-.515-3.433-1.202-3.364-2.403 0-1.099.927-1.888 3.02-1.888 2.198 0 3.228.96 3.365 2.574zm8.761 28.598h11.188v-3.162h-5.704v-.08l1.38-1.141c3.303-2.762 4.164-4.203 4.164-5.885 0-2.702-2.222-4.483-5.724-4.483-3.383 0-5.584 1.881-5.584 4.944h3.762c-.02-1.221.74-1.902 1.822-1.902 1.1 0 1.861.68 1.861 1.782 0 1.04-.66 1.7-1.721 2.602l-5.444 4.483zm13.589-11.432h6.763v-9.75h9.715v-5.459h-9.715v-4.291h10.78v-5.459h-17.543z"
		fill="white" />
</svg>
