<?xml version="1.0" encoding="UTF-8" standalone="no"?>
<!DOCTYPE svg PUBLIC "-//W3C//DTD SVG 1.1//EN" "http://www.w3.org/Graphics/SVG/1.1/DTD/svg11.dtd">
<svg width="100%" height="100%" viewBox="0 0 36 36" version="1.1" xmlns="http://www.w3.org/2000/svg" xmlns:xlink="http://www.w3.org/1999/xlink" xml:space="preserve" xmlns:serif="http://www.serif.com/" style="fill-rule:evenodd;clip-rule:evenodd;stroke-linejoin:round;stroke-miterlimit:2;">
    <path d="M34.453,15.573C35.229,18.393 36,22.488 36,27.641C36,28.194 35.553,28.641 35,28.641C34.447,28.641 34,28.194 34,27.641C34,26.141 33.925,24.742 33.807,23.435C33.678,23.82 33.546,24.198 33.387,24.552C32.54,26.909 31.348,29.733 31.348,31.534C31.348,35.098 29.246,35.641 26.653,35.641C24.062,35.641 21.959,35.098 21.959,31.534C21.959,31.317 21.968,31.116 21.972,30.907C21.501,30.93 21.021,30.946 20.524,30.946C19.7,30.946 18.922,30.903 18.165,30.839C18.169,31.071 18.177,31.294 18.177,31.534C18.177,35.098 16.075,35.641 13.482,35.641C10.89,35.641 8.788,35.098 8.788,31.534C8.788,29.202 7.185,24.661 6.795,21.79C6.763,21.626 6.723,21.472 6.695,21.304C5.974,23.916 5.59,28.074 6.44,29.775C7.613,32.12 8.787,32.12 7.613,33.296C6.439,34.467 2.918,33.296 1.745,30.946C0.571,28.6 -1.51,11.183 1.745,6.3C4.091,2.779 14.655,1.605 19.349,5.126C19.362,5.136 19.371,5.147 19.384,5.157C19.76,5.143 20.132,5.126 20.523,5.126C28.724,5.126 33.589,8.273 34.453,15.573ZM6.5,12.641C7.328,12.641 8,13.313 8,14.141C8,14.969 7.328,15.641 6.5,15.641C5.672,15.641 5,14.969 5,14.141C5,13.313 5.672,12.641 6.5,12.641Z" style="fill:rgb(48,136,212);"/>
</svg>
